<svg xmlns="http://www.w3.org/2000/svg" viewBox="0 0 64 64" fill="none">
  <rect width="64" height="64" rx="14" fill="#2563eb"/>
  <circle cx="32" cy="28" r="10" fill="#fbbf24" opacity="0.9"/>
  <line x1="32" y1="12" x2="32" y2="8" stroke="#fbbf24" stroke-width="2.5" stroke-linecap="round"/>
  <line x1="32" y1="48" x2="32" y2="44" stroke="#fbbf24" stroke-width="2.5" stroke-linecap="round"/>
  <line x1="18" y1="28" x2="14" y2="28" stroke="#fbbf24" stroke-width="2.5" stroke-linecap="round"/>
  <line x1="50" y1="28" x2="46" y2="28" stroke="#fbbf24" stroke-width="2.5" stroke-linecap="round"/>
  <line x1="22.1" y1="18.1" x2="19.3" y2="15.3" stroke="#fbbf24" stroke-width="2.5" stroke-linecap="round"/>
  <line x1="44.7" y1="40.7" x2="41.9" y2="37.9" stroke="#fbbf24" stroke-width="2.5" stroke-linecap="round"/>
  <line x1="41.9" y1="18.1" x2="44.7" y2="15.3" stroke="#fbbf24" stroke-width="2.5" stroke-linecap="round"/>
  <line x1="19.3" y1="40.7" x2="22.1" y2="37.9" stroke="#fbbf24" stroke-width="2.5" stroke-linecap="round"/>
  <path d="M26 44c0-3.3 2.7-6 6-6s6 2.7 6 6c0 4-2 7-6 9-4-2-6-5-6-9z" fill="white" opacity="0.95"/>
  <text x="32" y="49" text-anchor="middle" font-family="Arial,sans-serif" font-size="7" font-weight="bold" fill="#2563eb">PBM</text>
</svg>
